<svg width="125" height="27" viewBox="0 0 125 27" fill="none" xmlns="http://www.w3.org/2000/svg">
<g clip-path="url(#clip0_66_198)">
<path fill-rule="evenodd" clip-rule="evenodd" d="M13.2821 3.08273L15.0448 0L20.0421 2.91398L18.2801 5.99603C17.9706 6.5367 18.4338 7.19415 19.0408 7.07603L22.4178 6.4179L23.5107 12.1399L20.1337 12.7973C14.6711 13.8611 10.5007 7.94813 13.2821 3.08273Z" fill="#A8FF35"/>
<path fill-rule="evenodd" clip-rule="evenodd" d="M10.2286 23.9172L8.46591 26.9999L3.46791 24.0866L5.23061 21.0039C5.54011 20.4632 5.07687 19.8058 4.46925 19.9239L1.09291 20.5814L0 14.8601L3.37701 14.2026C8.83957 13.1388 13.0094 19.0518 10.2286 23.9172Z" fill="#A8FF35"/>
<path fill-rule="evenodd" clip-rule="evenodd" d="M10.381 3.08273L8.61893 0L3.62093 2.91398L5.38363 5.99603C5.69246 6.5367 5.22989 7.19415 4.62227 7.07603L1.24526 6.4179L0.153687 12.1399L3.53002 12.7973C8.99326 13.8611 13.1637 7.94813 10.3816 3.08273H10.381Z" fill="#A8FF35"/>
<path fill-rule="evenodd" clip-rule="evenodd" d="M13.135 23.9172L14.8963 26.9999L19.8943 24.0866L18.1316 21.0039C17.8228 20.4632 18.2854 19.8058 18.893 19.9239L22.2693 20.5814L23.3622 14.8601L19.9852 14.2026C14.5227 13.1388 10.3529 19.0518 13.1336 23.9172H13.135Z" fill="#A8FF35"/>
<path d="M109.033 20.3532V14.6157C109.033 13.8206 109.215 13.1071 109.577 12.476C109.952 11.832 110.483 11.3271 111.171 10.9606C111.859 10.5948 112.678 10.4118 113.628 10.4118C114.071 10.4075 114.513 10.4647 114.941 10.5819C115.341 10.6832 115.703 10.8283 116.028 11.0173C116.366 11.1942 116.653 11.4088 116.891 11.6613H116.929C117.183 11.4052 117.474 11.1882 117.791 11.0173C118.139 10.8237 118.511 10.6773 118.898 10.5819C119.332 10.4655 119.78 10.4083 120.229 10.4118C121.179 10.4118 121.998 10.5941 122.686 10.9606C123.373 11.3271 123.904 11.8314 124.279 12.476C124.655 13.1071 124.842 13.8199 124.842 14.6157V20.3532H121.916V14.7102C121.916 14.395 121.836 14.1108 121.673 13.8584C121.524 13.5943 121.311 13.3728 121.054 13.2144C120.783 13.0479 120.471 12.9625 120.154 12.9681C119.816 12.9681 119.51 13.0504 119.235 13.2144C118.978 13.3726 118.765 13.5942 118.616 13.8584C118.465 14.1158 118.387 14.4107 118.391 14.7102V20.3532H115.485V14.7102C115.485 14.395 115.403 14.1108 115.241 13.8584C115.088 13.5905 114.868 13.3683 114.603 13.2144C114.332 13.0479 114.02 12.9625 113.703 12.9681C113.365 12.9681 113.059 13.0504 112.784 13.2144C112.527 13.3726 112.314 13.5942 112.165 13.8584C112.014 14.116 111.936 14.4107 111.94 14.7102V20.3532H109.033ZM102.676 20.5807C101.689 20.5807 100.832 20.3917 100.107 20.0124C99.3944 19.6209 98.8443 19.0971 98.4566 18.441C98.0689 17.772 97.8751 17.0329 97.8751 16.2249V10.6386H100.782V16.1493C100.782 16.4902 100.863 16.8061 101.025 17.0963C101.188 17.3738 101.407 17.6013 101.682 17.7781C101.969 17.9421 102.295 18.0245 102.657 18.0245C103.007 18.0245 103.32 17.9421 103.595 17.7781C103.882 17.6013 104.108 17.3738 104.27 17.0963C104.433 16.8061 104.514 16.4902 104.514 16.1493V10.6386H107.421V16.2249C107.421 17.0329 107.233 17.772 106.858 18.441C106.483 19.0971 105.939 19.6215 105.227 20.0124C104.526 20.391 103.676 20.5807 102.676 20.5807ZM88.5121 20.3532V18.0245H93.1444C93.2694 18.0245 93.3817 17.9988 93.482 17.9482C93.5816 17.8854 93.6631 17.8031 93.7253 17.7025C93.7866 17.603 93.819 17.4882 93.819 17.3711C93.819 17.2539 93.7866 17.1391 93.7253 17.0396C93.6669 16.9423 93.5826 16.8635 93.482 16.8122C93.3807 16.7488 93.2636 16.716 93.1444 16.7177H91.4566C90.8309 16.7177 90.2621 16.6164 89.7501 16.4146C89.2636 16.2111 88.8464 15.8689 88.5495 15.4298C88.2621 14.9755 88.1184 14.3883 88.1184 13.6687C88.1184 13.1132 88.2494 12.6083 88.5121 12.154C88.7854 11.7011 89.1654 11.3236 89.6184 11.0551C90.091 10.7781 90.6287 10.6343 91.1752 10.6386H95.8069V12.987H91.625C91.459 12.9836 91.2979 13.0447 91.1752 13.1577C91.1204 13.2118 91.0771 13.2767 91.048 13.3483C91.0189 13.4199 91.0046 13.4968 91.0061 13.5742C91.0061 13.7511 91.0629 13.9023 91.1752 14.0285C91.2979 14.1415 91.459 14.2026 91.625 14.1993H93.2754C93.9753 14.1993 94.5756 14.3066 95.0756 14.5205C95.5883 14.723 95.982 15.0511 96.2574 15.5061C96.5448 15.9603 96.6886 16.5469 96.6886 17.2664C96.6886 17.8348 96.5448 18.3525 96.2574 18.8189C95.9846 19.2839 95.5967 19.6691 95.1317 19.9367C94.6692 20.2148 94.1444 20.3532 93.5569 20.3532H88.5121ZM82.1792 10.4118C82.992 10.4118 83.7106 10.5441 84.3356 10.8094C84.9495 11.0458 85.5014 11.4215 85.9486 11.9076C86.4044 12.3839 86.7558 12.9518 86.98 13.5742C87.2173 14.2053 87.3363 14.906 87.3363 15.6762C87.3363 16.6353 87.1364 17.4879 86.736 18.2324C86.3662 18.9459 85.8082 19.5423 85.1237 19.9556C84.4359 20.3721 83.6357 20.5807 82.7233 20.5807C82.3356 20.5807 81.9666 20.5301 81.6164 20.4295C81.2846 20.331 80.9689 20.1841 80.6792 19.9935C80.4061 19.8064 80.1706 19.5686 79.9853 19.2928H79.9285V24.4633H77.0221V15.6755C77.0221 14.6022 77.2347 13.6741 77.6598 12.8918C78.0719 12.1217 78.6975 11.4898 79.4599 11.0733C80.2353 10.6319 81.1418 10.4118 82.1792 10.4118ZM82.1792 12.9492C81.7293 12.9492 81.3356 13.0626 80.998 13.29C80.6725 13.5047 80.4225 13.8078 80.2474 14.1993C80.0729 14.5773 79.9853 15.0072 79.9853 15.4865C79.9853 15.9664 80.0729 16.3957 80.2474 16.7744C80.4225 17.153 80.6725 17.4561 80.998 17.6836C81.3356 17.8983 81.7293 18.0056 82.1792 18.0056C82.6291 18.0056 83.0168 17.8976 83.3416 17.6836C83.6685 17.4545 83.9279 17.1403 84.0923 16.7744C84.2795 16.3957 84.373 15.9664 84.373 15.4865C84.373 15.0072 84.2795 14.5779 84.0923 14.1993C83.9172 13.8078 83.6672 13.504 83.3416 13.29C83.0168 13.0626 82.6291 12.9492 82.1792 12.9492ZM72.605 20.3532V10.6386H75.5308V20.3532H72.605ZM74.0676 9.5404C73.605 9.5404 73.2053 9.3703 72.8677 9.02943C72.5301 8.68855 72.361 8.28423 72.361 7.81713C72.361 7.35003 72.5301 6.94638 72.8677 6.6055C73.2053 6.2518 73.605 6.07495 74.0676 6.07495C74.5301 6.07495 74.9305 6.2518 75.2681 6.6055C75.6057 6.94638 75.7741 7.35003 75.7741 7.81713C75.7741 8.28423 75.6057 8.68788 75.2681 9.02943C74.9305 9.3703 74.5301 9.5404 74.0676 9.5404ZM66.2467 20.5807C65.2594 20.5807 64.3717 20.36 63.5836 19.9178C62.8105 19.4899 62.1635 18.8627 61.7086 18.1001C61.2587 17.3299 61.0335 16.4652 61.0335 15.5054C61.0335 14.5334 61.2587 13.6687 61.7086 12.9114C62.1635 12.1487 62.8105 11.5215 63.5836 11.0936C64.3717 10.6386 65.2594 10.4118 66.2467 10.4118C67.2347 10.4118 68.1157 10.6386 68.8911 11.0936C69.6615 11.5185 70.3031 12.1468 70.7474 12.9114C71.2099 13.6687 71.4412 14.5334 71.4412 15.5054C71.4412 16.4652 71.2099 17.3299 70.7474 18.1001C70.3031 18.8646 69.6615 19.4929 68.8911 19.9178C68.1037 20.36 67.222 20.5807 66.2467 20.5807ZM66.2467 18.0245C66.7093 18.0245 67.1097 17.9104 67.4472 17.6836C67.7849 17.4564 68.0567 17.1426 68.2347 16.7744C68.4225 16.3957 68.5161 15.9664 68.5161 15.4865C68.5161 15.0194 68.4225 14.5968 68.2347 14.2175C68.0566 13.8495 67.7848 13.5359 67.4472 13.3089C67.1097 13.0815 66.7093 12.9681 66.2467 12.9681C65.7841 12.9681 65.3777 13.0815 65.0281 13.3089C64.6903 13.5362 64.4183 13.8499 64.24 14.2182C64.049 14.613 63.9528 15.0478 63.9593 15.4872C63.9593 15.9664 64.0529 16.3957 64.24 16.7744C64.4184 17.1426 64.6904 17.4563 65.0281 17.6836C65.3777 17.9104 65.7841 18.0245 66.2467 18.0245ZM51.587 24.198V21.6789H56.3871C56.5749 21.6789 56.7313 21.6162 56.8563 21.4899C56.9173 21.4355 56.9656 21.3683 56.998 21.2929C57.0303 21.2176 57.0459 21.136 57.0435 21.0539V18.9141H56.9874C56.7499 19.193 56.4791 19.441 56.1812 19.6526C55.9058 19.8551 55.593 20.0063 55.2434 20.1075C54.8713 20.2131 54.4861 20.264 54.0996 20.2587C53.2494 20.2587 52.4867 20.0562 51.8116 19.6526C51.1491 19.2361 50.6237 18.6617 50.236 17.9293C49.8617 17.1976 49.6738 16.364 49.6738 15.4298C49.6738 14.5084 49.8677 13.6687 50.2554 12.9114C50.6551 12.154 51.2367 11.5479 51.9994 11.0936C52.7614 10.6386 53.6932 10.4118 54.7935 10.4118C55.8436 10.4118 56.7501 10.6326 57.5128 11.0747C58.2786 11.4945 58.9048 12.1331 59.3129 12.9107C59.738 13.6937 59.9506 14.6157 59.9506 15.6762V21.3569C59.9506 22.2277 59.6946 22.9162 59.1819 23.4211C58.6819 23.9388 57.988 24.1973 57.1003 24.1973L51.587 24.198ZM54.8122 17.797C55.2621 17.797 55.6498 17.6958 55.9753 17.4939C56.2965 17.2833 56.5554 16.989 56.7247 16.6421C56.9024 16.2769 56.9924 15.8745 56.9874 15.4676C56.9874 15.0133 56.9005 14.5968 56.7253 14.2182C56.5502 13.8395 56.3002 13.5425 55.9746 13.3278C55.6498 13.1004 55.2621 12.987 54.8116 12.987C54.3744 12.987 53.9867 13.0943 53.6491 13.3089C53.3243 13.5236 53.0743 13.8138 52.8991 14.1797C52.7247 14.5462 52.6371 14.9559 52.6371 15.4109C52.6371 15.853 52.724 16.2567 52.8991 16.6232C53.0743 16.9762 53.3243 17.2604 53.6498 17.475C53.9867 17.6897 54.3744 17.797 54.8122 17.797ZM43.7654 20.5807C42.7781 20.5807 41.8904 20.36 41.103 19.9178C40.3296 19.4901 39.6824 18.8628 39.2273 18.1001C38.7775 17.3299 38.5522 16.4652 38.5522 15.5054C38.5522 14.5334 38.7775 13.6687 39.2273 12.9114C39.6824 12.1486 40.3296 11.5214 41.103 11.0936C41.8904 10.6386 42.7781 10.4118 43.7654 10.4118C44.7534 10.4118 45.6344 10.6386 46.4098 11.0936C47.1801 11.5186 47.8217 12.1469 48.2661 12.9114C48.7287 13.6687 48.9599 14.5334 48.9599 15.5054C48.9599 16.4652 48.7287 17.3299 48.2661 18.1001C47.8217 18.8645 47.1801 19.4928 46.4098 19.9178C45.6224 20.36 44.7407 20.5807 43.7654 20.5807ZM43.7654 18.0245C44.228 18.0245 44.6277 17.9104 44.966 17.6836C45.3035 17.4562 45.5752 17.1425 45.7534 16.7744C45.9406 16.3957 46.0341 15.9664 46.0341 15.4865C46.0341 15.0194 45.9406 14.5968 45.7534 14.2175C45.5751 13.8496 45.3034 13.5361 44.966 13.3089C44.6284 13.0815 44.228 12.9681 43.7654 12.9681C43.3029 12.9681 42.8964 13.0815 42.5468 13.3089C42.209 13.5362 41.9371 13.8499 41.7587 14.2182C41.5678 14.613 41.4716 15.0478 41.478 15.4872C41.478 15.9664 41.5716 16.3957 41.7587 16.7744C41.9371 17.1426 42.2091 17.4563 42.5468 17.6836C42.8964 17.9104 43.3029 18.0245 43.7654 18.0245ZM34.4566 20.3532C33.6438 20.3532 32.9312 20.171 32.3189 19.8045C31.7234 19.4558 31.2313 18.9523 30.8938 18.3465C30.5562 17.7403 30.3871 17.0707 30.3871 16.339V7.09758H33.5375V16.5658C33.5375 16.8696 33.6444 17.1342 33.8563 17.3616C34.0689 17.5884 34.3309 17.7025 34.6438 17.7025H38.113V20.3532H34.4566Z" fill="#A8FF35"/>
</g>
<defs>
<clipPath id="clip0_66_198">
<rect width="125" height="27" fill="white"/>
</clipPath>
</defs>
</svg>
